<?xml version="1.0" encoding="iso-8859-1"?>
<!-- Generator: Adobe Illustrator 17.1.0, SVG Export Plug-In . SVG Version: 6.00 Build 0)  -->
<!DOCTYPE svg PUBLIC "-//W3C//DTD SVG 1.1//EN" "http://www.w3.org/Graphics/SVG/1.1/DTD/svg11.dtd">
<svg xmlns="http://www.w3.org/2000/svg" xmlns:xlink="http://www.w3.org/1999/xlink" version="1.1" id="Capa_1" x="0px" y="0px" viewBox="0 0 431.721 431.721" style="enable-background:new 0 0 431.721 431.721;" xml:space="preserve" width="512px" height="512px">
<path d="M356.488,309.202h-6.229c7.051-16.202,8.161-35.311,2.703-53.969c-6.083-20.801-19.543-38.3-37.055-48.8  c8.601-13.944,11.688-31.505,8.286-49.185c-3.792-19.699-15.218-36.722-31.124-46.858c2.252-17.609-3.78-36.586-16.903-52.181  c-11.256-13.374-26.555-22.426-45.475-26.904c-19.199-4.544-26.504-18.889-28.753-24.846c-0.041-0.109-0.094-0.21-0.138-0.317  c-0.081-0.196-0.161-0.393-0.253-0.581c-0.059-0.12-0.128-0.233-0.192-0.35c-0.094-0.174-0.186-0.349-0.29-0.516  c-0.084-0.135-0.178-0.261-0.267-0.39c-0.095-0.137-0.186-0.278-0.288-0.41c-0.111-0.144-0.231-0.278-0.349-0.415  c-0.092-0.107-0.18-0.218-0.277-0.321c-0.131-0.14-0.271-0.27-0.41-0.401c-0.095-0.09-0.186-0.184-0.284-0.27  c-0.142-0.125-0.291-0.239-0.44-0.355c-0.105-0.083-0.208-0.169-0.316-0.247c-0.143-0.103-0.293-0.196-0.441-0.291  c-0.123-0.079-0.244-0.162-0.371-0.236c-0.137-0.08-0.279-0.15-0.42-0.223c-0.146-0.076-0.29-0.155-0.439-0.224  c-0.128-0.059-0.259-0.108-0.389-0.161c-0.169-0.069-0.337-0.141-0.509-0.201c-0.12-0.042-0.243-0.074-0.364-0.111  c-0.187-0.057-0.372-0.116-0.563-0.163c-0.12-0.029-0.242-0.048-0.363-0.073c-0.194-0.04-0.387-0.081-0.584-0.109  c-0.134-0.019-0.271-0.027-0.406-0.041c-0.185-0.019-0.369-0.041-0.555-0.049c-0.163-0.007-0.327-0.002-0.49-0.001  c-0.161,0.001-0.321-0.004-0.483,0.005c-0.196,0.01-0.393,0.036-0.59,0.058c-0.132,0.015-0.263,0.023-0.395,0.043  c-0.215,0.033-0.429,0.083-0.644,0.13c-0.106,0.024-0.212,0.037-0.318,0.064c-0.015,0.004-0.029,0.009-0.043,0.012  c-0.047,0.012-0.094,0.028-0.141,0.041c-18.62,4.815-34.669,18.76-42.955,37.345c-6.877,15.422-7.564,32.031-2.22,46.194  c-16.984,11.397-29.154,29.948-33.269,51.331c-3.907,20.298-0.027,40.559,10.422,56.432C101.69,203.3,86.122,223.23,79.166,247.015  c-6.313,21.587-4.772,43.704,3.854,62.186h-7.787c-5.522,0-10,4.477-10,10c0,5.523,4.478,10,10,10h1.418l14.433,94.037  c0.748,4.88,4.946,8.483,9.884,8.483h229.783c4.938,0,9.136-3.603,9.884-8.483l14.433-94.037h1.418c5.522,0,10-4.477,10-10  C366.488,313.679,362.01,309.202,356.488,309.202z M98.362,252.63c5.945-20.327,19.695-37.018,37.323-45.661  c8.458,7.079,19.03,13.046,31.533,17.785c1.167,0.442,2.364,0.652,3.542,0.652c4.036,0,7.838-2.462,9.353-6.458  c1.958-5.165-0.642-10.938-5.807-12.895c-12.506-4.74-22.848-11.038-29.907-18.214c-11.875-12.069-16.839-30.324-13.276-48.832  c3.212-16.694,12.806-31.006,26.085-39.344c14.976,10.004,34.032,18.108,54.434,23.063c0.793,0.193,1.587,0.285,2.368,0.285  c4.507,0,8.599-3.068,9.71-7.642c1.304-5.367-1.99-10.774-7.357-12.078c-19.58-4.756-37.591-12.636-50.971-22.274  c-5.51-9.96-5.598-22.96-0.152-35.17c4.662-10.459,12.704-18.786,22.275-23.393c8.242,14.095,22.087,24.413,38.572,28.315  c14.854,3.516,26.23,10.163,34.778,20.32c9.296,11.045,13.739,24.096,12.471,35.971c-8.189,1.164-17.141,1.455-26.698,0.864  c-5.529-0.339-10.258,3.852-10.599,9.364c-0.34,5.512,3.852,10.257,9.364,10.598c3.611,0.223,7.155,0.335,10.63,0.335  c8.633,0,16.823-0.689,24.475-2.059c12.253,7.002,21.151,19.813,24.048,34.868c3.013,15.651-0.884,30.942-10.431,41.162  c-19.104,11.536-50.703,16.349-82.893,12.574c-5.474-0.652-10.454,3.281-11.097,8.766c-0.644,5.485,3.281,10.454,8.767,11.097  c8.122,0.953,16.176,1.42,24.048,1.42c26.257,0,50.442-5.207,68.201-14.864c15.399,7.426,27.434,21.938,32.617,39.663  c5.097,17.428,2.722,35.144-6.252,48.355H167.424c-5.523,0-10,4.477-10,10v43.44c0,3.309-2.691,6-6,6c-3.309,0-6-2.691-6-6v-43.44  c0-5.523-4.478-10-10-10H106.01C95.28,293.827,92.393,273.041,98.362,252.63z M322.17,411.721H109.551l-12.666-82.52h4.167  c0.003,0,0.006,0,0.009,0c0.004,0,0.008,0,0.012,0h24.351v33.44c0,14.336,11.663,26,26,26s26-11.664,26-26v-33.44h155.087  c0.004,0,0.008,0,0.012,0c0.003,0,0.006,0,0.009,0h2.304L322.17,411.721z" fill="#00aeef"/>
<g>
</g>
<g>
</g>
<g>
</g>
<g>
</g>
<g>
</g>
<g>
</g>
<g>
</g>
<g>
</g>
<g>
</g>
<g>
</g>
<g>
</g>
<g>
</g>
<g>
</g>
<g>
</g>
<g>
</g>
</svg>
