<?xml version="1.0" encoding="iso-8859-1"?>
<!-- Generator: Adobe Illustrator 17.1.0, SVG Export Plug-In . SVG Version: 6.00 Build 0)  -->
<!DOCTYPE svg PUBLIC "-//W3C//DTD SVG 1.1//EN" "http://www.w3.org/Graphics/SVG/1.1/DTD/svg11.dtd">
<svg xmlns="http://www.w3.org/2000/svg" xmlns:xlink="http://www.w3.org/1999/xlink" version="1.1" id="Capa_1" x="0px" y="0px" viewBox="0 0 417.007 417.007" style="enable-background:new 0 0 417.007 417.007;" xml:space="preserve" width="512px" height="512px">
<path d="M407.007,302.773h-23.226V162.121c0-67.103-54.593-121.695-121.696-121.695c-1.58,0-3.138,0.375-4.546,1.093L38.68,153.214  c-0.033,0.017-0.062,0.036-0.095,0.053c-0.128,0.067-0.252,0.14-0.377,0.213c-0.146,0.085-0.29,0.17-0.43,0.261  c-0.107,0.07-0.211,0.142-0.316,0.216c-0.153,0.108-0.302,0.219-0.448,0.335c-0.088,0.07-0.175,0.14-0.26,0.212  c-0.156,0.133-0.306,0.27-0.452,0.411c-0.071,0.068-0.142,0.134-0.211,0.204c-0.159,0.162-0.31,0.331-0.457,0.503  c-0.05,0.058-0.103,0.114-0.152,0.173c-0.19,0.233-0.371,0.473-0.539,0.721c-0.036,0.053-0.066,0.11-0.101,0.163  c-0.126,0.194-0.247,0.389-0.359,0.591c-0.065,0.117-0.123,0.239-0.184,0.359c-0.073,0.145-0.145,0.289-0.211,0.438  c-0.059,0.134-0.114,0.27-0.167,0.407c-0.057,0.145-0.111,0.291-0.161,0.439c-0.046,0.137-0.091,0.273-0.131,0.412  c-0.049,0.169-0.091,0.34-0.132,0.512c-0.028,0.12-0.059,0.238-0.083,0.36c-0.119,0.607-0.182,1.229-0.186,1.856  c0,0.023-0.003,0.044-0.003,0.067v140.652H10c-5.523,0-10,4.478-10,10c0,5.522,4.477,10,10,10h25.023l9.128,45.765  c0.933,4.677,5.038,8.044,9.807,8.044h309.092c4.769,0,8.874-3.367,9.807-8.044l9.128-45.765h25.023c5.522,0,10-4.478,10-10  C417.007,307.251,412.53,302.773,407.007,302.773z M53.226,203.52c4.392,1.417,7.694,3.807,11.669,6.693  c7.307,5.306,16.4,11.908,33.419,11.908c17.02,0,26.114-6.603,33.421-11.908c6.47-4.697,11.144-8.092,21.669-8.092  c10.525,0,15.2,3.395,21.67,8.092c7.307,5.306,16.401,11.908,33.421,11.908c17.02,0,26.113-6.603,33.42-11.908  c6.471-4.697,11.146-8.092,21.67-8.092c10.531,0,15.209,3.395,21.685,8.093c2.238,1.624,4.654,3.377,7.413,5.023v40.476  c0,14.337,11.664,26,26,26c14.337,0,26-11.663,26-26v-40.476c2.759-1.646,5.175-3.399,7.413-5.023  c3.98-2.888,7.287-5.279,11.685-6.696v99.256H53.226V203.52z M264.437,60.452c51.636,1.18,93.892,41.039,98.857,91.669H189.568  c-5.523,0-10,4.477-10,10c0,5.522,4.477,10,10,10h174.213v10.865c-10.865,1.951-17.705,6.886-23.431,11.039  c-3.299,2.395-6.148,4.462-9.564,5.906c-3.699,1.565-6.104,5.192-6.104,9.21v46.571c0,3.309-2.691,6-6,6c-3.309,0-6-2.691-6-6  v-46.571c0-4.018-2.404-7.645-6.103-9.21c-3.416-1.444-6.266-3.512-9.565-5.906c-7.31-5.304-16.407-11.904-33.43-11.904  c-17.021,0-26.113,6.602-33.42,11.908c-6.471,4.697-11.145,8.092-21.67,8.092c-10.525,0-15.2-3.395-21.67-8.092  c-7.307-5.306-16.401-11.908-33.421-11.908c-17.02,0-26.114,6.602-33.42,11.908c-6.47,4.697-11.145,8.092-21.67,8.092  c-10.524,0-15.199-3.395-21.668-8.092c-5.722-4.155-12.558-9.091-23.42-11.043v-10.866h96.343c5.523,0,10-4.478,10-10  c0-5.523-4.477-10-10-10h-64.75L264.437,60.452z M62.16,356.582l-6.743-33.809H361.59l-6.743,33.809H62.16z" fill="#FFFFFF"/>
<g>
</g>
<g>
</g>
<g>
</g>
<g>
</g>
<g>
</g>
<g>
</g>
<g>
</g>
<g>
</g>
<g>
</g>
<g>
</g>
<g>
</g>
<g>
</g>
<g>
</g>
<g>
</g>
<g>
</g>
</svg>
